<svg xmlns="http://www.w3.org/2000/svg" xmlns:xlink="http://www.w3.org/1999/xlink" width="400" zoomAndPan="magnify" viewBox="0 0 300 329.249999" height="439" preserveAspectRatio="xMidYMid meet" version="1.0"><defs><clipPath id="e2039f6ddf"><path d="M 0.339844 96 L 259 96 L 259 322 L 0.339844 322 Z M 0.339844 96 " clip-rule="nonzero"/></clipPath><clipPath id="237d6f79c2"><path d="M 0.339844 166 L 43 166 L 43 215 L 0.339844 215 Z M 0.339844 166 " clip-rule="nonzero"/></clipPath><clipPath id="f545a66a15"><path d="M 268 64.28125 L 299.65625 64.28125 L 299.65625 96 L 268 96 Z M 268 64.28125 " clip-rule="nonzero"/></clipPath><clipPath id="4806d0dae8"><path d="M 169 282 L 216 282 L 216 328.429688 L 169 328.429688 Z M 169 282 " clip-rule="nonzero"/></clipPath></defs><path fill="#d4e7ff" d="M 275.144531 214.417969 C 272.085938 280.492188 213.269531 299.300781 140.007812 300.710938 C 28.292969 302.867188 15.289062 267.398438 15.289062 201.257812 C 15.289062 135.117188 39.644531 66.828125 104.21875 71.859375 C 134.894531 74.25 169.71875 125.066406 195.789062 141.925781 C 231.808594 165.222656 277.449219 164.785156 275.144531 214.417969 Z M 275.144531 214.417969 " fill-opacity="1" fill-rule="nonzero"/><g clip-path="url(#e2039f6ddf)"><path stroke-linecap="butt" transform="matrix(0.487488, 0, 0, 0.487358, 0.341212, 64.282729)" fill="none" stroke-linejoin="miter" d="M 27.145306 364.838486 C 27.145306 364.838486 74.878866 344.015132 96.818515 276.150874 C 118.766176 208.26257 158.542808 151.10655 233.9293 147.275309 C 309.307779 143.428038 390.840258 148.14896 417.788044 107.696509 C 444.719804 67.244057 387.154269 66.322315 386.344954 137.304465 C 385.535639 208.278601 509.593214 338.444604 516.075748 439.523635 C 522.566294 540.594651 438.798183 520.540751 334.733092 479.903951 C 230.668001 439.275166 122.035489 519.675115 54.317456 489.60228 C -13.392563 459.521429 -10.459797 395.207882 27.145306 364.838486 Z M 27.145306 364.838486 " stroke="#4570b4" stroke-width="1" stroke-opacity="0.42" stroke-miterlimit="10"/></g><path fill="#4570b4" d="M 18.511719 203.753906 C 25.882812 203.753906 31.855469 197.785156 31.855469 190.417969 C 31.855469 183.054688 25.882812 177.085938 18.511719 177.085938 C 11.144531 177.085938 5.167969 183.054688 5.167969 190.417969 C 5.167969 197.785156 11.144531 203.753906 18.511719 203.753906 Z M 18.511719 203.753906 " fill-opacity="0.42" fill-rule="nonzero"/><g clip-path="url(#237d6f79c2)"><path stroke-linecap="butt" transform="matrix(0.487488, 0, 0, 0.487358, 0.341212, 64.282729)" fill="none" stroke-linejoin="miter" d="M 61.977904 283.50878 C 75.624077 269.866998 75.624077 247.76122 61.977904 234.119438 C 48.33173 220.485671 26.215795 220.485671 12.569622 234.119438 C -1.068538 247.76122 -1.068538 269.866998 12.569622 283.50878 C 26.215795 297.142546 48.33173 297.142546 61.977904 283.50878 Z M 61.977904 283.50878 " stroke="#4570b4" stroke-width="1" stroke-opacity="0.42" stroke-miterlimit="10"/></g><path fill="#4570b4" d="M 271.949219 214.417969 C 280.542969 214.417969 287.511719 207.457031 287.511719 198.867188 C 287.511719 190.277344 280.542969 183.3125 271.949219 183.3125 C 263.351562 183.3125 256.382812 190.277344 256.382812 198.867188 C 256.382812 207.457031 263.351562 214.417969 271.949219 214.417969 Z M 271.949219 214.417969 " fill-opacity="0.42" fill-rule="nonzero"/><path stroke-linecap="butt" transform="matrix(0.487488, 0, 0, 0.487358, 0.341212, 64.282729)" fill="none" stroke-linejoin="miter" d="M 334.180193 190.068184 L 325.566197 203.750042 L 343.916013 203.750042 Z M 334.180193 190.068184 " stroke="#4570b4" stroke-width="1" stroke-opacity="0.42" stroke-miterlimit="10"/><path fill="#4570b4" d="M 104.003906 94.84375 L 98.386719 103.746094 L 110.339844 103.746094 Z M 104.003906 94.84375 " fill-opacity="0.42" fill-rule="nonzero"/><path fill="#4570b4" d="M 146.066406 112.832031 C 155.03125 112.832031 162.296875 105.570312 162.296875 96.613281 C 162.296875 87.65625 155.03125 80.394531 146.066406 80.394531 C 137.105469 80.394531 129.839844 87.65625 129.839844 96.613281 C 129.839844 105.570312 137.105469 112.832031 146.066406 112.832031 Z M 146.066406 112.832031 " fill-opacity="0.42" fill-rule="nonzero"/><path fill="#ffffff" d="M 145.742188 94.609375 L 144.828125 92.867188 C 144.242188 91.746094 144.675781 90.363281 145.796875 89.777344 C 146.558594 89.375 146.855469 88.4375 146.453125 87.667969 L 145.09375 85.054688 C 144.691406 84.296875 143.75 83.996094 142.980469 84.398438 L 141.792969 85.019531 C 140.671875 85.609375 139.757812 86.519531 139.179688 87.640625 L 138.832031 88.3125 C 138.230469 89.464844 138.238281 90.839844 138.839844 91.996094 L 141.390625 96.875 L 143.09375 100.132812 L 145.644531 105.011719 C 146.246094 106.167969 147.375 106.953125 148.667969 107.121094 L 149.414062 107.21875 C 150.667969 107.382812 151.941406 107.15625 153.0625 106.566406 L 154.25 105.945312 C 155.011719 105.542969 155.308594 104.605469 154.914062 103.835938 L 153.550781 101.222656 C 153.152344 100.464844 152.210938 100.167969 151.441406 100.5625 C 150.320312 101.148438 148.9375 100.710938 148.351562 99.59375 L 147.4375 97.851562 Z M 145.742188 94.609375 " fill-opacity="1" fill-rule="nonzero"/><path stroke-linecap="butt" transform="matrix(0.487488, 0, 0, 0.487358, 0.341212, 64.282729)" fill="none" stroke-linejoin="miter" d="M 542.43057 441.687725 C 542.43057 445.494921 539.345558 448.580752 535.53136 448.580752 C 531.725176 448.580752 528.63215 445.502936 528.63215 441.687725 C 528.63215 437.872515 531.717163 434.794698 535.53136 434.794698 C 539.345558 434.810728 542.43057 437.888545 542.43057 441.687725 Z M 542.43057 441.687725 " stroke="#4570b4" stroke-width="1" stroke-opacity="0.42" stroke-miterlimit="10"/><path fill="#ffffff" d="M 63.910156 101.957031 C 67.34375 101.957031 70.125 99.179688 70.125 95.75 C 70.125 92.320312 67.34375 89.542969 63.910156 89.542969 C 60.480469 89.542969 57.699219 92.320312 57.699219 95.75 C 57.699219 99.179688 60.480469 101.957031 63.910156 101.957031 Z M 63.910156 101.957031 " fill-opacity="0.42" fill-rule="nonzero"/><path stroke-linecap="butt" transform="matrix(0.487488, 0, 0, 0.487358, 0.341212, 64.282729)" fill="none" stroke-linejoin="miter" d="M 478.230254 254.277535 C 485.273699 254.277535 490.978969 248.57075 490.978969 241.541465 C 490.978969 234.504165 485.273699 228.805395 478.230254 228.805395 C 471.194823 228.805395 465.489552 234.504165 465.489552 241.541465 C 465.489552 248.57075 471.194823 254.277535 478.230254 254.277535 Z M 478.230254 254.277535 " stroke="#4570b4" stroke-width="1" stroke-opacity="0.42" stroke-miterlimit="10"/><path fill="#4570b4" d="M 37.914062 223.566406 C 41.257812 223.566406 43.96875 220.855469 43.96875 217.515625 C 43.96875 214.175781 41.257812 211.46875 37.914062 211.46875 C 34.574219 211.46875 31.863281 214.175781 31.863281 217.515625 C 31.863281 220.855469 34.574219 223.566406 37.914062 223.566406 Z M 37.914062 223.566406 " fill-opacity="0.42" fill-rule="nonzero"/><path stroke-linecap="butt" transform="matrix(0.487488, 0, 0, 0.487358, 0.341212, 64.282729)" fill="none" stroke-linejoin="miter" d="M 557.158501 298.16047 C 569.322266 298.16047 579.17828 288.309853 579.17828 276.150874 C 579.17828 263.991894 569.322266 254.133262 557.158501 254.133262 C 544.994737 254.133262 535.138722 263.991894 535.138722 276.150874 C 535.138722 288.309853 544.994737 298.16047 557.158501 298.16047 Z M 557.158501 298.16047 " stroke="#ffffff" stroke-width="1" stroke-opacity="0.42" stroke-miterlimit="10"/><path fill="#4570b4" d="M 262.824219 97.234375 L 188.421875 97.234375 C 185.238281 97.234375 182.667969 99.8125 182.667969 102.988281 L 182.667969 147.898438 C 182.667969 151.078125 185.246094 153.648438 188.421875 153.648438 L 235.875 153.648438 L 235.875 164.972656 C 235.875 166.867188 238.085938 167.898438 239.539062 166.679688 L 255.027344 153.648438 L 262.824219 153.648438 C 266.007812 153.648438 268.578125 151.070312 268.578125 147.898438 L 268.578125 102.992188 C 268.578125 99.8125 266.007812 97.234375 262.824219 97.234375 Z M 262.824219 97.234375 " fill-opacity="0.42" fill-rule="nonzero"/><path fill="#68a8de" d="M 281.667969 102.839844 C 281.667969 109.554688 279.738281 115.808594 276.410156 121.0625 C 275.882812 121.90625 275.316406 122.730469 274.714844 123.519531 C 268.632812 131.496094 259.125 136.632812 248.4375 136.632812 C 242.949219 136.632812 237.777344 135.28125 233.21875 132.882812 C 222.515625 127.269531 215.207031 115.921875 215.207031 102.839844 C 215.207031 101.3125 215.300781 99.808594 215.503906 98.328125 C 217.667969 81.800781 231.59375 69.046875 248.4375 69.046875 C 266.789062 69.046875 281.667969 84.175781 281.667969 102.839844 Z M 281.667969 102.839844 " fill-opacity="1" fill-rule="nonzero"/><path fill="#c6606c" d="M 274.714844 123.511719 C 268.632812 131.488281 259.121094 136.625 248.433594 136.625 C 242.949219 136.625 237.777344 135.277344 233.21875 132.878906 C 233.839844 131.324219 235.75 127.195312 239.132812 124.886719 C 243.351562 121.996094 256.175781 120.261719 265.070312 121.023438 C 270.320312 121.464844 273.21875 122.632812 274.714844 123.511719 Z M 274.714844 123.511719 " fill-opacity="1" fill-rule="nonzero"/><path fill="#ffffff" d="M 233.472656 85.699219 L 233.820312 102.199219 C 233.820312 102.199219 234.34375 119.058594 248.070312 118.761719 C 261.800781 118.464844 264.699219 97.636719 264.699219 97.636719 L 262.539062 85 C 262.539062 85 246.492188 74.300781 233.472656 85.699219 Z M 233.472656 85.699219 " fill-opacity="1" fill-rule="nonzero"/><path fill="#ffffff" d="M 248.164062 114.792969 C 248.164062 114.792969 249.183594 121.175781 247.648438 123.261719 C 246.109375 125.347656 250.703125 132.59375 250.703125 132.59375 L 261.335938 122.847656 C 261.335938 122.847656 260.632812 115.699219 260.824219 109.445312 Z M 248.164062 114.792969 " fill-opacity="1" fill-rule="nonzero"/><path fill="#00496a" d="M 233.550781 89.488281 C 233.550781 89.488281 237.5 90.746094 241.726562 90.371094 C 245.953125 89.996094 247.433594 88.296875 247.433594 88.296875 C 247.433594 88.296875 248.84375 88.890625 251.140625 88.890625 C 253.4375 88.890625 255.144531 87.777344 255.144531 87.777344 C 255.144531 87.777344 253.589844 90.449219 254.253906 93.855469 C 254.917969 97.261719 257.144531 98.148438 257.144531 98.148438 C 257.144531 98.148438 258.554688 94.738281 260.996094 94.738281 C 263.441406 94.738281 264.332031 97.332031 263.703125 100.742188 C 263.074219 104.148438 259.144531 104.964844 259.144531 104.964844 L 260.816406 109.449219 C 260.816406 109.449219 267.148438 102.667969 267.886719 95.1875 C 268.628906 87.710938 264.851562 85.484375 264.851562 85.484375 C 264.851562 85.484375 265.167969 79.925781 257.746094 78.003906 C 250.324219 76.074219 245.433594 76.226562 239.871094 79.414062 C 239.871094 79.414062 235.203125 75.863281 231.273438 78.003906 C 227.347656 80.152344 228.460938 84.746094 230.382812 85.925781 C 230.382812 85.925781 226.605469 86.886719 227.414062 91.554688 C 228.230469 96.21875 233.675781 95.851562 233.675781 95.851562 Z M 233.550781 89.488281 " fill-opacity="1" fill-rule="nonzero"/><path fill="#d9d9d9" d="M 248.070312 118.761719 C 248.070312 118.761719 258.050781 116.121094 259.03125 109.449219 C 259.03125 109.449219 261.507812 119.121094 248.070312 122.40625 C 248.070312 122.40625 248.46875 119.527344 248.070312 118.761719 Z M 248.070312 118.761719 " fill-opacity="1" fill-rule="nonzero"/><g clip-path="url(#f545a66a15)"><path fill="#4570b4" d="M 299.449219 82.3125 C 300.832031 73.851562 295.089844 65.871094 286.621094 64.488281 C 278.152344 63.105469 270.167969 68.84375 268.78125 77.304688 C 267.398438 85.769531 273.140625 93.75 281.609375 95.132812 C 290.078125 96.515625 298.0625 90.777344 299.449219 82.3125 Z M 299.449219 82.3125 " fill-opacity="0.42" fill-rule="nonzero"/></g><path fill="#ffffff" d="M 282.367188 83.992188 L 282.3125 83.273438 C 282.144531 81.773438 282.644531 80.132812 284.035156 78.46875 C 285.285156 76.996094 285.976562 75.910156 285.976562 74.660156 C 285.976562 73.242188 285.085938 72.292969 283.335938 72.265625 C 282.332031 72.265625 281.226562 72.597656 280.527344 73.132812 L 279.863281 71.382812 C 280.78125 70.71875 282.367188 70.269531 283.839844 70.269531 C 287.035156 70.269531 288.480469 72.238281 288.480469 74.355469 C 288.480469 76.242188 287.421875 77.601562 286.085938 79.1875 C 284.863281 80.632812 284.421875 81.855469 284.503906 83.273438 L 284.53125 83.992188 Z M 281.757812 87.882812 C 281.757812 86.851562 282.449219 86.132812 283.425781 86.132812 C 284.398438 86.132812 285.0625 86.851562 285.0625 87.882812 C 285.0625 88.855469 284.425781 89.605469 283.398438 89.605469 C 282.421875 89.605469 281.757812 88.855469 281.757812 87.882812 Z M 281.757812 87.882812 " fill-opacity="1" fill-rule="nonzero"/><path fill="#a6d6f7" d="M 257.695312 262.371094 C 257.648438 262.53125 257.585938 262.664062 257.511719 262.765625 C 256.195312 264.667969 254.8125 266.511719 253.351562 268.296875 L 253.347656 268.296875 C 205.867188 326.605469 83.769531 326.605469 83.769531 326.605469 L 83.769531 257.015625 L 257.511719 257.015625 C 257.511719 257.015625 258.179688 260.804688 257.695312 262.371094 Z M 257.695312 262.371094 " fill-opacity="1" fill-rule="nonzero"/><path fill="#8cc6e5" d="M 257.695312 262.371094 C 257.648438 262.53125 257.585938 262.664062 257.511719 262.765625 C 256.195312 264.667969 254.8125 266.515625 253.351562 268.296875 L 253.347656 268.296875 L 83.769531 287.582031 L 83.769531 262.371094 Z M 257.695312 262.371094 " fill-opacity="1" fill-rule="nonzero"/><path fill="#ff6a76" d="M 163.519531 207.789062 L 155.113281 216.695312 C 155.113281 216.695312 153.390625 214.925781 151.332031 212.214844 C 150.347656 210.914062 149.289062 209.402344 148.316406 207.761719 C 147.035156 205.621094 145.886719 203.269531 145.230469 200.914062 C 143.015625 192.996094 143.921875 176.304688 143.921875 176.304688 C 143.921875 176.304688 147.503906 176.691406 148.730469 178.050781 C 155.625 185.726562 163.519531 207.789062 163.519531 207.789062 Z M 163.519531 207.789062 " fill-opacity="1" fill-rule="nonzero"/><path fill="#4570b4" d="M 131.925781 236.871094 L 71.746094 236.871094 L 66.246094 190.625 C 65.617188 185.332031 69.3125 180.511719 74.507812 179.835938 L 78.125 179.367188 L 124.109375 173.394531 Z M 131.925781 236.871094 " fill-opacity="1" fill-rule="nonzero"/><path fill="#ff6a76" d="M 117.234375 174.925781 C 117.234375 174.925781 97.652344 181.21875 96.585938 182.84375 C 95.527344 184.460938 104.722656 213.140625 104.722656 213.140625 L 102.949219 236.878906 L 142.828125 236.878906 L 144.84375 214.226562 C 144.84375 214.226562 149.109375 209.546875 149.371094 201.8125 C 149.636719 194.074219 143.921875 176.304688 143.921875 176.304688 L 130.011719 174.476562 Z M 117.234375 174.925781 " fill-opacity="1" fill-rule="nonzero"/><path fill="#00496a" d="M 122.835938 130.375 C 122.835938 130.375 109.191406 124.507812 99.5 138.195312 C 89.808594 151.878906 99.84375 173.394531 99.84375 173.394531 C 99.84375 173.394531 124.574219 170.164062 131.414062 169.507812 C 138.257812 168.851562 139.648438 168.851562 139.648438 168.851562 C 139.648438 168.851562 143.175781 147.234375 135.648438 139.285156 C 128.117188 131.34375 122.835938 130.375 122.835938 130.375 Z M 122.835938 130.375 " fill-opacity="1" fill-rule="nonzero"/><path fill="#ffffff" d="M 127.914062 183.753906 L 116.390625 175.859375 C 116.390625 175.859375 117.339844 172.839844 117.101562 169.820312 C 117.046875 169.148438 116.9375 168.476562 116.742188 167.84375 C 116.648438 167.523438 116.527344 167.210938 116.390625 166.910156 L 127.914062 166.335938 C 127.914062 166.335938 127.992188 167.269531 128.207031 168.472656 C 128.378906 169.410156 128.632812 170.515625 129.023438 171.476562 C 129.296875 172.191406 129.644531 172.820312 130.074219 173.253906 C 131.835938 175.046875 127.914062 183.753906 127.914062 183.753906 Z M 127.914062 183.753906 " fill-opacity="1" fill-rule="nonzero"/><path fill="#d9d9d9" d="M 129.023438 171.476562 C 127.542969 171.527344 121.183594 171.621094 117.105469 169.820312 C 117.046875 169.148438 116.9375 168.476562 116.742188 167.84375 C 116.742188 167.84375 124.511719 168.789062 128.207031 168.472656 C 128.378906 169.410156 128.636719 170.515625 129.023438 171.476562 Z M 129.023438 171.476562 " fill-opacity="1" fill-rule="nonzero"/><path fill="#ffffff" d="M 134.402344 135.566406 L 136.328125 151.4375 C 136.328125 151.4375 138.84375 167.792969 125.640625 169.375 C 112.433594 170.964844 107.992188 155.710938 107.992188 155.710938 L 106.429688 138.863281 C 106.425781 138.863281 120.355469 126.414062 134.402344 135.566406 Z M 134.402344 135.566406 " fill-opacity="1" fill-rule="nonzero"/><path fill="#00496a" d="M 128.378906 136.796875 C 128.378906 136.796875 126.648438 141.042969 120.972656 144.054688 C 115.933594 146.722656 111.210938 147.464844 111.210938 147.464844 C 111.210938 147.464844 110.449219 151.9375 107.90625 154.734375 C 107.90625 154.734375 103.492188 146.371094 105.296875 139.167969 C 107.09375 131.964844 116.398438 128.488281 124.566406 129.222656 C 132.730469 129.953125 135.671875 132.945312 136.757812 137.703125 C 137.84375 142.457031 136.03125 148.886719 136.03125 148.886719 C 136.03125 148.886719 134.28125 138.285156 128.378906 136.796875 Z M 128.378906 136.796875 " fill-opacity="1" fill-rule="nonzero"/><path fill="#68a8de" d="M 106.421875 151.238281 C 106.421875 151.238281 104.851562 139.167969 114.164062 132.761719 C 120.230469 128.585938 127.867188 129.699219 127.867188 129.699219 C 127.867188 129.699219 123.050781 126.074219 113.570312 130.257812 C 104.085938 134.441406 103.601562 143.894531 104.5625 151.238281 Z M 106.421875 151.238281 " fill-opacity="1" fill-rule="nonzero"/><path fill="#375c93" d="M 85.472656 236.871094 L 71.738281 236.871094 L 66.242188 190.625 C 65.613281 185.332031 69.304688 180.511719 74.5 179.835938 L 78.117188 179.363281 Z M 85.472656 236.871094 " fill-opacity="1" fill-rule="nonzero"/><path fill="#375c93" d="M 119.3125 166.472656 C 113.007812 166.472656 108.332031 162.089844 108.125 161.890625 L 108.96875 160.972656 C 109.019531 161.019531 114.128906 165.789062 120.519531 165.152344 L 120.640625 166.402344 C 120.1875 166.453125 119.746094 166.472656 119.3125 166.472656 Z M 119.3125 166.472656 " fill-opacity="1" fill-rule="nonzero"/><path fill="#68a8de" d="M 275.425781 262.765625 L 86.605469 262.765625 C 81.554688 262.765625 76.742188 260.6875 73.386719 257.042969 L 63.015625 245.804688 C 58.992188 241.441406 62.195312 234.535156 68.238281 234.535156 L 252.570312 234.535156 C 258.941406 234.535156 265.0625 236.925781 269.644531 241.207031 L 280.289062 251.140625 C 284.820312 255.363281 281.722656 262.765625 275.425781 262.765625 Z M 275.425781 262.765625 " fill-opacity="1" fill-rule="nonzero"/><path fill="#ffffff" d="M 189.320312 178.957031 C 188.980469 179.144531 188.449219 179.457031 187.867188 179.800781 L 187.757812 179.621094 C 189.488281 178.523438 192.039062 176.800781 191.867188 176.386719 C 191.601562 175.757812 190.308594 176.089844 189.347656 176.605469 C 188.792969 176.910156 187.785156 177.511719 186.808594 178.101562 L 186.742188 177.988281 C 188.457031 176.90625 191.3125 175.015625 191.125 174.574219 C 190.863281 173.945312 189.570312 174.277344 188.609375 174.796875 C 188 175.128906 186.84375 175.820312 185.785156 176.457031 L 185.703125 176.324219 C 187.40625 175.222656 189.617188 173.703125 189.460938 173.316406 C 189.195312 172.6875 187.902344 173.019531 186.941406 173.539062 C 185.640625 174.242188 181.871094 176.574219 181.871094 176.574219 L 179.125 177.574219 C 179.71875 176.613281 181.386719 173.054688 180.605469 173.054688 C 179.824219 173.054688 177.679688 175.535156 176.785156 178.09375 C 176.121094 180.007812 176.039062 181.714844 176.039062 182.449219 L 151.960938 213.023438 C 151.960938 213.023438 152.527344 213.914062 153.390625 215.109375 C 155.890625 218.558594 161.707031 219.320312 165.070312 216.699219 C 167.726562 214.628906 169.8125 211.890625 171.867188 209.089844 C 175.734375 203.824219 181.496094 189.839844 182.847656 186.492188 L 188.296875 181.390625 C 189.792969 180.421875 191.695312 179.117188 191.554688 178.769531 C 191.320312 178.210938 190.171875 178.5 189.320312 178.957031 Z M 189.320312 178.957031 " fill-opacity="1" fill-rule="nonzero"/><path fill="#00496a" d="M 125.980469 241.972656 C 125.980469 241.972656 128.792969 244.046875 129.90625 246.859375 C 131.019531 249.675781 123.902344 251.484375 112.027344 247.457031 C 103.386719 244.523438 117.976562 235.523438 125.980469 241.972656 Z M 125.980469 241.972656 " fill-opacity="1" fill-rule="nonzero"/><path fill="#00496a" d="M 121.511719 167.234375 L 119.917969 167.234375 C 119.351562 167.234375 118.886719 166.761719 118.886719 166.191406 L 118.886719 165.207031 C 118.886719 164.632812 119.351562 164.164062 119.917969 164.164062 L 121.511719 164.164062 C 122.078125 164.164062 122.539062 164.632812 122.539062 165.207031 L 122.539062 166.191406 C 122.535156 166.761719 122.078125 167.234375 121.511719 167.234375 Z M 121.511719 167.234375 " fill-opacity="1" fill-rule="nonzero"/><path fill="#4570b4" d="M 113.230469 154.816406 C 114.109375 159.214844 111.820312 163.402344 108.113281 164.171875 C 104.402344 164.9375 100.691406 161.992188 99.804688 157.597656 C 98.925781 153.199219 101.214844 149.011719 104.921875 148.246094 C 108.628906 147.476562 112.351562 150.421875 113.230469 154.816406 Z M 113.230469 154.816406 " fill-opacity="1" fill-rule="nonzero"/><path fill="#68a8de" d="M 109.496094 155.59375 C 110.011719 158.183594 108.664062 160.660156 106.480469 161.109375 C 104.292969 161.558594 102.101562 159.824219 101.582031 157.230469 C 101.0625 154.636719 102.410156 152.164062 104.597656 151.714844 C 106.785156 151.257812 108.976562 153 109.496094 155.59375 Z M 109.496094 155.59375 " fill-opacity="1" fill-rule="nonzero"/><path fill="#ff6a76" d="M 99.8125 181.109375 C 99.8125 181.109375 96.449219 181.613281 95.078125 183.78125 C 89.226562 193.085938 77.839844 221.546875 77.839844 221.546875 L 88.824219 226.398438 C 88.824219 226.398438 103.269531 209.679688 104.597656 201.722656 C 105.925781 193.765625 99.8125 181.109375 99.8125 181.109375 Z M 99.8125 181.109375 " fill-opacity="1" fill-rule="nonzero"/><path fill="#ffffff" d="M 87.789062 223.972656 L 110.332031 238.628906 L 107.148438 245.6875 C 107.148438 245.6875 86.859375 238.398438 80.621094 233.6875 C 74.390625 228.964844 77.835938 221.546875 77.835938 221.546875 C 77.835938 221.546875 81.292969 221.140625 87.789062 223.972656 Z M 87.789062 223.972656 " fill-opacity="1" fill-rule="nonzero"/><path fill="#ffffff" d="M 109.675781 238.398438 C 109.675781 238.398438 117.277344 238.039062 120.015625 238.039062 C 122.753906 238.039062 127.527344 242.535156 127.003906 243.972656 C 126.46875 245.410156 120.992188 241.003906 120.992188 241.003906 L 120.679688 241.59375 C 120.679688 241.59375 125.542969 244.558594 125.804688 245.6875 C 126.070312 246.8125 124.96875 246.632812 123.378906 245.957031 C 121.789062 245.277344 119.402344 243.75 119.402344 243.75 L 119.136719 244.066406 C 119.136719 244.066406 123.738281 246.902344 123.738281 247.933594 C 123.738281 248.96875 120.425781 247.792969 117.988281 246.175781 L 117.679688 246.675781 C 117.679688 246.675781 120.6875 248.203125 120.910156 249.191406 C 121.128906 250.179688 119.492188 249.777344 117.679688 248.921875 C 115.867188 248.0625 114.183594 247.972656 111.839844 247.613281 C 109.496094 247.253906 106.714844 245.519531 106.714844 245.519531 Z M 109.675781 238.398438 " fill-opacity="1" fill-rule="nonzero"/><path fill="#4570b4" d="M 249.453125 197.296875 L 238.640625 251.484375 L 158.539062 251.484375 L 169.289062 197.609375 C 169.515625 196.46875 170.5 195.652344 171.640625 195.652344 L 248.132812 195.652344 C 248.980469 195.652344 249.625 196.445312 249.453125 197.296875 Z M 249.453125 197.296875 " fill-opacity="1" fill-rule="nonzero"/><path fill="#00496a" d="M 158.539062 251.484375 L 136.535156 244.332031 C 135.757812 244.074219 135.234375 243.355469 135.234375 242.535156 C 135.234375 241.488281 136.078125 240.648438 137.121094 240.648438 L 160.710938 240.648438 Z M 158.539062 251.484375 " fill-opacity="1" fill-rule="nonzero"/><path fill="#c6606c" d="M 100.785156 183.304688 C 100.785156 183.304688 105.710938 197.226562 102.730469 206.789062 C 102.730469 206.789062 112.800781 195.601562 100.785156 183.304688 Z M 100.785156 183.304688 " fill-opacity="1" fill-rule="nonzero"/><path fill="#c6606c" d="M 151.328125 212.214844 C 150.347656 210.914062 149.289062 209.402344 148.3125 207.761719 C 150.347656 199.777344 145.617188 182 145.617188 182 C 155.984375 195.210938 153.09375 207.480469 151.328125 212.214844 Z M 151.328125 212.214844 " fill-opacity="1" fill-rule="nonzero"/><path fill="#375c93" d="M 174.109375 198.867188 L 238.640625 251.484375 L 165.0625 251.484375 Z M 174.109375 198.867188 " fill-opacity="1" fill-rule="nonzero"/><path fill="#a6d6f7" d="M 212.894531 232.394531 C 216.179688 231.042969 217.75 227.285156 216.394531 224.003906 C 215.042969 220.71875 211.285156 219.152344 208 220.503906 C 204.714844 221.855469 203.144531 225.613281 204.496094 228.894531 C 205.847656 232.179688 209.609375 233.746094 212.894531 232.394531 Z M 212.894531 232.394531 " fill-opacity="1" fill-rule="nonzero"/><path fill="#ffa9b3" d="M 117.027344 172.679688 L 127.914062 183.746094 C 127.914062 183.746094 126.027344 186.417969 122.886719 186.347656 C 119.746094 186.269531 117.976562 182.28125 117.089844 180.203125 C 116.199219 178.121094 114.386719 175.855469 114.386719 175.855469 Z M 117.027344 172.679688 " fill-opacity="1" fill-rule="nonzero"/><path fill="#ffa9b3" d="M 127.914062 183.753906 C 127.914062 183.753906 130.722656 185.460938 133.464844 184.273438 C 136.203125 183.089844 135.460938 181.28125 134.5 179.367188 C 133.539062 177.457031 132.5 174.050781 132.5 174.050781 L 129.375 172.253906 C 129.375 172.253906 129.929688 179.53125 127.914062 183.753906 Z M 127.914062 183.753906 " fill-opacity="1" fill-rule="nonzero"/><path fill="#c6606c" d="M 144.703125 205.136719 L 117.269531 207.789062 C 117.269531 207.789062 123.417969 212.199219 132.890625 210.867188 C 142.359375 209.53125 144.703125 205.136719 144.703125 205.136719 Z M 144.703125 205.136719 " fill-opacity="1" fill-rule="nonzero"/><path fill="#4570b4" d="M 83.382812 115.988281 L 33.773438 115.988281 C 30.609375 115.988281 28.042969 118.554688 28.042969 121.714844 L 28.042969 134.855469 C 28.042969 138.015625 30.609375 140.578125 33.773438 140.578125 L 75.566406 140.578125 L 89.109375 148.402344 L 89.109375 121.714844 C 89.109375 118.554688 86.542969 115.988281 83.382812 115.988281 Z M 83.382812 115.988281 " fill-opacity="0.42" fill-rule="nonzero"/><path stroke-linecap="round" transform="matrix(0.487488, 0, 0, 0.487358, 0.341212, 64.282729)" fill="none" stroke-linejoin="round" d="M 64.646239 118.292534 L 170.658494 118.292534 " stroke="#ffffff" stroke-width="1" stroke-opacity="1" stroke-miterlimit="10"/><path stroke-linecap="round" transform="matrix(0.487488, 0, 0, 0.487358, 0.341212, 64.282729)" fill="none" stroke-linejoin="round" d="M 64.646239 131.228983 L 170.658494 131.228983 " stroke="#ffffff" stroke-width="1" stroke-opacity="1" stroke-miterlimit="10"/><path stroke-linecap="round" transform="matrix(0.487488, 0, 0, 0.487358, 0.341212, 64.282729)" fill="none" stroke-linejoin="round" d="M 64.646239 144.165432 L 170.658494 144.165432 " stroke="#ffffff" stroke-width="1" stroke-opacity="1" stroke-miterlimit="10"/><path fill="#c6606c" d="M 86.226562 268.792969 C 87.527344 258.066406 79.050781 259.675781 73.253906 265.339844 C 67.460938 271 61.78125 267.839844 68.207031 257.265625 C 74.632812 246.6875 79.335938 243.4375 78.449219 238.117188 C 77.558594 232.792969 72.917969 235.125 64.878906 239.546875 C 56.839844 243.972656 64.4375 232.414062 63.828125 221.449219 C 63.21875 210.488281 52.324219 215.960938 51.410156 225.195312 C 50.496094 234.425781 54.621094 244.761719 49.328125 242.714844 C 44.042969 240.660156 40.839844 228.402344 36.035156 234.191406 C 31.226562 239.976562 49.605469 259.601562 48.988281 265.523438 C 48.375 271.449219 35.148438 253.394531 31.351562 259.339844 C 27.554688 265.285156 43.988281 304.976562 58.21875 303.863281 C 76.292969 302.453125 84.925781 279.523438 86.226562 268.792969 Z M 86.226562 268.792969 " fill-opacity="1" fill-rule="nonzero"/><path stroke-linecap="butt" transform="matrix(0.487488, 0, 0, 0.487358, 0.341212, 64.282729)" fill="none" stroke-linejoin="miter" d="M 116.081815 332.825985 C 116.081815 332.825985 111.42625 358.306141 113.285271 390.599172 C 115.144291 422.908233 119.375166 504.181834 119.375166 504.181834 " stroke="#aa4451" stroke-width="1" stroke-opacity="1" stroke-miterlimit="10"/><path stroke-linecap="butt" transform="matrix(0.487488, 0, 0, 0.487358, 0.341212, 64.282729)" fill="none" stroke-linejoin="miter" d="M 84.398334 364.838486 C 84.398334 364.838486 105.825149 390.262536 113.597778 395.865124 C 113.597778 395.865124 141.27475 369.206742 146.547317 364.838486 " stroke="#aa4451" stroke-width="1" stroke-opacity="1" stroke-miterlimit="10"/><path stroke-linecap="butt" transform="matrix(0.487488, 0, 0, 0.487358, 0.341212, 64.282729)" fill="none" stroke-linejoin="miter" d="M 71.745775 415.718646 C 71.745775 415.718646 103.950102 448.115874 116.554583 450.255918 L 163.943583 418.499902 " stroke="#aa4451" stroke-width="1" stroke-opacity="1" stroke-miterlimit="10"/><path fill="#ff6a76" d="M 52.046875 297.773438 C 52.046875 297.773438 58.855469 282.730469 55.1875 274.648438 C 51.523438 266.570312 46.265625 271.3125 44.609375 277.753906 C 42.957031 284.195312 37.625 284.398438 37.625 274.242188 C 37.625 264.085938 39.539062 259.792969 36.640625 256.441406 C 33.746094 253.089844 31.480469 256.699219 27.726562 263.230469 C 23.96875 269.761719 24.371094 258.414062 19.265625 250.972656 C 14.160156 243.535156 8.855469 252.023438 12.148438 258.894531 C 15.449219 265.761719 22.753906 271.257812 18.167969 272.070312 C 13.582031 272.886719 6.101562 265.644531 5.195312 271.753906 C 4.289062 277.863281 25.566406 283.800781 27.65625 288.21875 C 29.753906 292.636719 12.769531 285.605469 12.640625 291.398438 C 12.507812 297.191406 32.269531 307.355469 41.222656 305.839844 C 50.171875 304.328125 52.046875 297.773438 52.046875 297.773438 Z M 52.046875 297.773438 " fill-opacity="1" fill-rule="nonzero"/><path stroke-linecap="butt" transform="matrix(0.487488, 0, 0, 0.487358, 0.341212, 64.282729)" fill="none" stroke-linejoin="miter" d="M 32.506016 392.330444 C 32.506016 392.330444 85.648365 477.67574 96.826528 504.181834 " stroke="#aa4451" stroke-width="1" stroke-opacity="1" stroke-miterlimit="10"/><path stroke-linecap="butt" transform="matrix(0.487488, 0, 0, 0.487358, 0.341212, 64.282729)" fill="none" stroke-linejoin="miter" d="M 23.795863 432.839002 L 61.168588 439.507605 L 68.861088 407.382892 " stroke="#aa4451" stroke-width="1" stroke-opacity="1" stroke-miterlimit="10"/><path stroke-linecap="butt" transform="matrix(0.487488, 0, 0, 0.487358, 0.341212, 64.282729)" fill="none" stroke-linejoin="miter" d="M 43.547957 471.175455 L 83.476836 478.084512 L 99.935579 441.848028 " stroke="#aa4451" stroke-width="1" stroke-opacity="1" stroke-miterlimit="10"/><path fill="#375c93" d="M 40.472656 310 L 73.394531 310 L 70.5625 326.605469 L 43.90625 326.605469 Z M 40.472656 310 " fill-opacity="1" fill-rule="nonzero"/><path fill="#4570b4" d="M 73.792969 314.59375 L 40.371094 314.59375 C 39.140625 314.59375 38.148438 313.597656 38.148438 312.371094 L 38.148438 310.609375 C 38.148438 309.378906 39.144531 308.390625 40.371094 308.390625 L 73.792969 308.390625 C 75.027344 308.390625 76.015625 309.386719 76.015625 310.609375 L 76.015625 312.371094 C 76.023438 313.597656 75.027344 314.59375 73.792969 314.59375 Z M 73.792969 314.59375 " fill-opacity="1" fill-rule="nonzero"/><g clip-path="url(#4806d0dae8)"><path fill="#4570b4" d="M 192.800781 328.425781 C 205.421875 328.425781 215.65625 318.199219 215.65625 305.585938 C 215.65625 292.96875 205.421875 282.746094 192.800781 282.746094 C 180.175781 282.746094 169.945312 292.96875 169.945312 305.585938 C 169.945312 318.199219 180.175781 328.425781 192.800781 328.425781 Z M 192.800781 328.425781 " fill-opacity="0.42" fill-rule="nonzero"/></g><path fill="#ffffff" d="M 207.160156 297.152344 L 178.433594 297.152344 C 177.644531 297.152344 177.007812 297.785156 177.007812 298.574219 L 177.007812 314.390625 C 177.007812 315.179688 177.644531 315.816406 178.433594 315.816406 L 207.160156 315.816406 C 207.949219 315.816406 208.585938 315.179688 208.585938 314.390625 L 208.585938 298.574219 C 208.585938 297.785156 207.949219 297.152344 207.160156 297.152344 Z M 207.589844 299.433594 L 194.101562 308.246094 C 193.984375 308.320312 193.851562 308.355469 193.71875 308.355469 C 193.601562 308.355469 193.484375 308.328125 193.382812 308.265625 L 177.671875 299.453125 C 177.339844 299.265625 177.222656 298.84375 177.410156 298.511719 C 177.59375 298.179688 178.019531 298.0625 178.351562 298.25 L 193.699219 306.855469 L 206.835938 298.269531 C 207.152344 298.0625 207.582031 298.152344 207.789062 298.472656 C 207.996094 298.796875 207.90625 299.222656 207.589844 299.433594 Z M 207.589844 299.433594 " fill-opacity="1" fill-rule="nonzero"/><path fill="#ffa9b3" d="M 210.445312 303.125 C 215.125 303.125 218.921875 299.332031 218.921875 294.65625 C 218.921875 289.980469 215.125 286.1875 210.445312 286.1875 C 205.765625 286.1875 201.972656 289.980469 201.972656 294.65625 C 201.972656 299.332031 205.765625 303.125 210.445312 303.125 Z M 210.445312 303.125 " fill-opacity="1" fill-rule="nonzero"/></svg>